<?xml version="1.0" standalone="no"?>
<!DOCTYPE svg PUBLIC "-//W3C//DTD SVG 20010904//EN"
 "http://www.w3.org/TR/2001/REC-SVG-20010904/DTD/svg10.dtd">
<svg version="1.0" xmlns="http://www.w3.org/2000/svg"
 width="900.000000pt" height="747.000000pt" viewBox="0 0 900.000000 747.000000"
 preserveAspectRatio="xMidYMid meet">
<metadata>
Created by potrace 1.10, written by Peter Selinger 2001-2011
</metadata>
<g transform="translate(0.000000,747.000000) scale(0.100000,-0.100000)"
fill="#ffffff" stroke="none">
<path d="M4325 6824 c-226 -24 -474 -65 -590 -99 -159 -46 -192 -56 -210 -64
-11 -4 -58 -23 -105 -41 -99 -38 -441 -210 -487 -246 -17 -13 -34 -24 -37 -24
-8 0 -175 -117 -226 -159 -25 -20 -63 -50 -85 -66 -22 -16 -109 -99 -194 -185
-158 -160 -302 -340 -419 -525 -64 -102 -212 -392 -212 -417 0 -8 -4 -18 -9
-23 -9 -9 -85 -229 -111 -320 -18 -64 -39 -179 -61 -330 -30 -204 -30 -591 0
-800 28 -200 46 -286 91 -440 48 -166 153 -383 246 -510 133 -181 421 -337
735 -399 131 -25 149 -27 149 -16 0 6 -31 41 -68 78 -38 37 -96 101 -130 142
-34 41 -67 82 -74 90 -52 61 -118 154 -167 237 -83 141 -112 199 -183 363 -48
111 -110 323 -123 425 -4 28 -11 66 -15 85 -20 81 -31 375 -20 541 12 184 18
226 66 424 43 177 71 255 165 450 276 572 763 1023 1334 1235 127 47 260 90
278 90 8 0 37 6 63 14 270 79 747 95 1029 35 154 -33 194 -42 230 -54 22 -7
60 -18 85 -25 71 -21 239 -88 305 -121 297 -152 458 -266 683 -484 82 -79 133
-138 280 -322 18 -24 37 -43 42 -43 5 0 29 17 53 38 24 20 88 74 143 118 154
127 147 109 78 201 -83 109 -370 395 -487 484 -161 122 -196 146 -327 225
-113 68 -320 175 -425 219 -73 30 -80 33 -125 48 -141 49 -317 93 -485 122
-181 32 -575 60 -680 49z"/>
<path d="M4325 6129 c-110 -6 -178 -16 -310 -46 -80 -18 -265 -72 -280 -83 -5
-3 -32 -15 -60 -25 -101 -36 -313 -148 -422 -221 -298 -200 -552 -483 -731
-815 -53 -99 -131 -309 -166 -449 -43 -168 -76 -402 -76 -535 0 -111 41 -414
70 -520 6 -22 18 -65 27 -95 108 -387 314 -712 641 -1014 l83 -76 62 0 c36 0
68 5 75 12 9 9 12 78 12 248 0 129 3 313 7 409 l6 173 36 33 c110 98 170 152
296 260 76 66 212 185 303 265 178 158 216 190 409 354 70 59 175 152 233 205
133 124 139 127 178 98 17 -12 158 -139 314 -281 363 -332 618 -563 865 -784
l93 -82 190 0 c146 0 190 3 189 13 0 6 -82 78 -182 159 -100 82 -201 165 -223
186 -23 22 -80 72 -126 113 -162 141 -929 839 -988 899 -62 63 -151 140 -162
140 -7 0 -29 -15 -48 -33 -20 -17 -105 -93 -190 -168 -85 -75 -203 -179 -261
-230 -58 -52 -170 -150 -249 -219 -79 -69 -167 -146 -195 -171 -65 -59 -253
-223 -314 -274 -27 -22 -106 -91 -177 -154 -348 -306 -289 -271 -455 -271
-116 0 -138 2 -143 16 -3 9 -6 17 -6 18 0 5 501 459 701 636 40 36 99 88 129
115 78 70 207 184 250 221 31 27 177 156 270 238 699 623 680 606 691 606 5 0
25 -17 46 -38 21 -21 63 -60 93 -86 30 -27 89 -81 130 -120 41 -40 104 -98
140 -131 51 -46 235 -216 314 -290 6 -6 76 -71 156 -144 80 -74 184 -172 232
-218 145 -141 139 -130 -187 374 -89 138 -90 141 -65 168 11 12 20 26 20 32 0
9 -70 76 -285 272 -38 36 -108 101 -155 145 -47 45 -108 101 -135 125 -28 25
-99 91 -159 148 -60 57 -118 103 -128 103 -9 0 -79 -55 -154 -122 -121 -109
-189 -169 -289 -256 -16 -14 -75 -67 -130 -117 -115 -103 -148 -132 -340 -304
-77 -68 -142 -127 -145 -131 -6 -6 -155 -140 -270 -240 -63 -56 -136 -121
-330 -296 -215 -194 -274 -244 -286 -244 -8 0 -14 3 -14 8 0 4 -7 50 -15 102
-29 186 -11 483 40 658 8 28 21 73 29 100 95 327 331 658 626 879 219 164 480
278 764 334 99 19 133 21 340 16 204 -4 244 -8 341 -31 99 -23 174 -46 260
-79 35 -14 183 -88 270 -136 171 -94 378 -280 532 -478 53 -68 99 -123 103
-123 6 0 138 96 150 109 3 3 40 37 83 75 l78 68 -21 35 c-82 139 -316 387
-480 509 -200 149 -304 208 -575 325 -11 5 -60 22 -110 38 -235 77 -525 108
-840 90z"/>
<path d="M7073 5053 c-35 -7 -83 -72 -83 -111 0 -76 64 -131 138 -117 90 17
129 96 82 172 -27 45 -81 67 -137 56z"/>
<path d="M6629 4885 c-31 -17 -43 -53 -30 -88 11 -27 29 -37 70 -37 58 0 83
76 38 118 -27 25 -42 27 -78 7z"/>
<path d="M7104 4550 c-25 -10 -54 -52 -54 -78 0 -11 11 -31 25 -46 30 -32 72
-34 109 -5 65 51 -2 160 -80 129z"/>
<path d="M5967 4473 c-4 -3 -7 -43 -7 -88 0 -60 4 -86 15 -95 8 -6 19 -9 24
-5 17 10 51 -33 51 -64 0 -16 -7 -34 -15 -41 -22 -19 -19 -28 40 -120 29 -47
73 -116 96 -155 23 -38 61 -99 84 -135 23 -36 75 -119 115 -185 112 -184 241
-388 258 -407 14 -17 53 -18 553 -18 321 0 540 4 544 9 3 5 -12 43 -34 83 -21
40 -61 116 -88 168 -28 52 -70 133 -95 180 -25 47 -82 157 -128 244 -45 88
-87 168 -93 178 -11 17 -36 18 -412 18 -299 0 -404 3 -413 12 -16 16 -16 200
0 216 7 7 24 12 39 12 44 0 59 23 59 93 0 34 -3 72 -6 85 l-6 22 -287 0 c-158
0 -291 -3 -294 -7z"/>
<path d="M4544 3944 c-40 -26 -74 -69 -74 -93 0 -8 22 -11 68 -9 l67 3 0 59
c0 33 -5 61 -10 63 -6 2 -29 -9 -51 -23z"/>
<path d="M4744 3956 c-3 -7 -4 -35 -2 -62 l3 -49 59 -3 c32 -2 63 1 69 7 14
14 -27 76 -67 100 -39 25 -55 26 -62 7z"/>
<path d="M1256 3793 c-5 -19 -27 -156 -45 -280 -18 -121 -14 -397 9 -536 60
-376 182 -652 410 -932 100 -122 269 -267 412 -354 108 -65 283 -135 448 -180
346 -92 739 -89 1120 11 125 33 305 91 348 114 15 7 30 14 34 14 17 0 255 123
341 176 101 62 147 98 138 107 -13 13 -595 5 -612 -10 -8 -6 -36 -16 -64 -22
-27 -5 -79 -17 -115 -26 -402 -96 -858 -97 -1180 0 -30 9 -73 21 -95 27 -22 6
-44 15 -50 19 -5 5 -16 9 -25 9 -8 1 -33 9 -55 20 -22 11 -43 19 -47 20 -13 0
-121 53 -183 89 -88 51 -240 169 -318 246 -190 191 -323 438 -400 750 -47 187
-52 233 -52 498 1 232 -4 292 -19 240z"/>
<path d="M4431 3716 c-7 -9 -11 -41 -9 -83 l3 -68 90 0 90 0 3 68 c4 90 -2 97
-93 97 -50 0 -76 -4 -84 -14z"/>
<path d="M4744 3717 c-3 -8 -4 -45 -2 -83 l3 -69 95 0 95 0 3 68 c2 42 -2 74
-9 83 -16 19 -177 20 -185 1z"/>
<path d="M4225 3168 c-3 -7 -4 -215 -3 -463 l3 -450 309 -3 c219 -2 313 1 322
9 19 16 21 888 2 907 -18 18 -627 17 -633 0z m542 -470 c47 -44 14 -128 -51
-128 -43 0 -76 35 -76 81 0 28 6 42 22 53 32 23 78 20 105 -6z"/>
<path d="M5082 3091 c-9 -5 -16 -106 -13 -184 1 -16 11 -17 99 -15 l97 3 0
100 0 100 -86 1 c-47 1 -91 -1 -97 -5z"/>
<path d="M5424 3087 c-3 -8 -4 -54 -2 -103 l3 -89 95 0 95 0 3 96 3 96 -53 6
c-86 11 -138 8 -144 -6z"/>
<path d="M3604 3006 c-3 -7 -4 -42 -2 -77 l3 -64 53 -3 c72 -4 82 6 82 83 0
72 -4 75 -81 75 -33 0 -51 -5 -55 -14z"/>
<path d="M3852 3008 c-17 -17 -16 -122 2 -137 8 -7 37 -11 68 -9 l53 3 0 75 0
75 -55 3 c-34 2 -60 -2 -68 -10z"/>
<path d="M6017 2893 c-4 -3 -7 -145 -7 -315 0 -194 -4 -317 -10 -329 -10 -18
-24 -19 -253 -19 -274 0 -245 7 -359 -91 -50 -44 -278 -217 -327 -249 -13 -8
-43 -30 -68 -48 -24 -19 -91 -62 -148 -97 -57 -34 -117 -72 -133 -84 -17 -11
-33 -21 -37 -21 -4 0 -44 -22 -89 -49 -74 -45 -317 -171 -329 -171 -5 0 -83
-34 -162 -70 -47 -22 -204 -78 -250 -89 -27 -7 -66 -16 -85 -21 -46 -12 -267
-55 -355 -69 -69 -11 -315 -31 -387 -31 -69 0 -41 -25 110 -98 381 -183 688
-269 1077 -302 293 -25 351 -24 688 10 519 53 1075 283 1542 637 184 140 446
420 601 643 102 145 127 192 112 201 -14 10 -346 11 -434 2 -53 -6 -55 -7
-116 -82 -198 -241 -427 -438 -727 -626 -63 -39 -258 -135 -361 -177 -14 -5
-38 -16 -55 -23 -36 -16 -188 -66 -265 -88 -56 -16 -208 -46 -335 -66 -77 -13
-280 -16 -307 -6 -23 9 -13 25 14 25 19 0 249 94 398 163 204 94 654 367 940
570 142 101 366 292 520 444 l125 123 345 2 345 3 0 200 0 200 -606 3 c-333 1
-609 -1 -612 -5z"/>
<path d="M5067 2744 c-11 -11 -8 -163 3 -185 9 -16 22 -19 93 -19 45 0 88 4
95 8 9 6 12 34 10 103 l-3 94 -95 3 c-53 1 -99 0 -103 -4z"/>
<path d="M5424 2737 c-2 -7 -4 -54 -2 -103 l3 -89 92 0 c50 0 94 2 96 5 3 3 7
48 8 100 l4 95 -98 3 c-75 2 -99 0 -103 -11z"/>
<path d="M3604 2708 c-8 -12 -6 -140 3 -148 11 -12 115 -3 124 11 5 8 9 42 9
75 0 47 -4 63 -16 68 -27 10 -113 7 -120 -6z"/>
<path d="M3852 2708 c-17 -17 -16 -122 2 -137 8 -7 37 -11 68 -9 l53 3 0 75 0
75 -55 3 c-34 2 -60 -2 -68 -10z"/>
<path d="M3607 2413 c-4 -3 -7 -39 -7 -79 l0 -72 40 -7 c42 -7 80 1 92 19 4 6
8 39 8 72 0 47 -4 63 -16 68 -21 8 -109 8 -117 -1z"/>
<path d="M3851 2406 c-14 -16 -13 -102 1 -129 8 -15 19 -17 66 -15 l57 3 3 69
c2 49 -1 72 -10 77 -22 14 -104 10 -117 -5z"/>
</g>
</svg>
